Patient4_TMGait_0pt2_03_left_17_EMG.mot
version=1
nRows=13
nColumns=33
inDegrees=no
endheader
time	1LAddLong	2LGlutMax	3LGlutMed	4LIliopsoas	5LSemiMemb	6LBicFemLong	7LRecFem	8LVastMed	9LVastLat	10LGasMed	11LTibAnt	12lTibPost	13LPeroneusLong	14LSol	15LExtDigLong	16LFlexDigLong	17RAddLong	18RGlutMax	19RGlutMed	20RIliopsoas	21RSemiMemb	22RBicFemLong	23RRecFem	24RVastMed	25RVastLat	26RGasMed	27RTibAnt	28RTibPost	29RPeroneusLong	30RSol	31RExtDigLong	32RFlexDigLong
36.905	0.00946	0.030212	0.11978	0.015717	0.007782	-0.020905	0.045319	0.014343	-0.006104	0.39734	-0.019684	0.001373	-0.05127	0.012665	-0.001831	-0.019989	-0.006866	0.010071	-0.40329	-0.21225	0.29083	0.07019	-0.21454	0.27679	-0.40756	0.027313	0.000916	-0.019836	0.1207	0.029755	-0.000305	-0.003204
36.906	-0.00351	0.021057	0.12894	0.005188	0.020447	-0.006561	0.067596	0.000153	-0.003662	0.31586	-0.008392	0.001221	-0.004883	-0.026703	0.005188	-0.040436	0.034485	0.04776	0.39398	-0.072937	0.25345	0.033569	0.03479	0.22797	-0.2179	0.024872	0.010986	-0.019531	0.072784	0.089569	0.00061	-0.003662
36.907	-0.006866	-0.017548	0.20889	-0.00946	-0.025482	0.040588	0.12405	0.001526	-0.022278	0.092468	-0.042725	0.002441	0.37247	-0.11887	0.027313	-0.055389	0.05661	0.014954	0.57739	0.17227	0.19165	-0.018311	0.1416	0.19073	-0.046082	0.013123	-0.015259	-0.019379	0.000305	0.11261	0.00061	-0.007477
36.908	-0.016785	-0.02243	0.23254	-0.005341	-0.078735	0.042725	0.15335	0.002899	-0.038452	-0.1947	-0.00824	-0.005646	-0.05661	-0.35339	0.041962	0.028992	0.040588	-0.013885	-0.21255	0.17502	0.067749	0.008087	-0.013275	0.11917	0.12619	0.009003	-0.032043	-0.019684	0.13825	0.028381	0.000153	-0.000458
36.909	-0.020905	-0.007172	0.1741	-0.009003	-0.081787	0.02594	0.14923	0.00061	-0.074768	-0.28473	0.020599	0.011139	-0.004272	-0.35187	-0.009155	0.099335	-0.009003	0.026245	0.041351	0.12604	-0.066833	0.080566	-0.24551	0.10223	0.21103	0.004578	-0.064545	-0.022736	0.17563	0.027924	0.000153	-0.011444
36.91	-0.024872	0.010376	0.18372	0.011597	-0.039368	0.003052	0.12436	0.006866	-0.078125	-0.044708	0.029602	0.01236	-0.07309	-0.20599	-0.037537	0.00824	-0.068054	0.084686	-0.5722	0.11414	0.096893	0.10223	-0.1741	0.10162	0.16617	-0.001678	-0.000458	-0.027008	-0.16495	0.031586	-0.002289	-0.011444
36.911	-0.008698	0.005341	0.16037	0.014343	0.000153	-0.058289	0.054626	0.012054	-0.089417	-0.001526	-0.037384	0.001984	-0.099487	-0.028229	-0.022888	0.023499	-0.0383	0.04715	0.077362	0.059509	0.18951	0.055542	0.043945	-0.014496	0.089111	-0.005341	0.031281	-0.024261	-0.23178	0.028076	-0.001221	-0.012665
36.912	0.000153	-0.00061	0.13214	0.008392	-0.014343	-0.081787	-0.1149	0.018921	-0.032043	-0.025482	-0.037231	0.006866	-0.098114	-0.032654	0.005493	-0.000153	0.019226	0.019684	1.4696	-0.19989	0.26764	0.036469	0.29022	-0.16785	0.012054	-0.006866	0.038452	-0.003204	-0.10712	0.033417	0.000458	-0.00946
36.913	0.00885	0.038757	0.092316	0.011292	0.047302	-0.0737	-0.16205	0.009308	0.041809	-0.039368	-0.004425	0.006104	0.15182	-0.14313	0.012207	-0.016327	0.009766	-0.006256	1.3066	-0.32898	0.21362	0.052032	0.32227	-0.13229	-0.042877	-0.013428	-0.016937	0.005188	0.38818	-0.050659	-0.001221	0.005341
36.914	0.007782	0.049896	0.026245	0.01236	0.091858	-0.002136	-0.080109	0.010681	-0.001831	-0.043335	0.006104	0.008392	-0.055695	-0.15808	0.002289	0.002289	0.007477	-0.06897	0.66345	-0.14038	0.19455	0.062103	0.17044	-0.25925	-0.23895	-0.019836	-0.00946	0.009613	0.12405	-0.16541	0.002899	-0.004883
36.915	0.008087	0.021057	0.066833	0.010071	0.017548	-0.011749	-0.066223	-0.000916	-0.000458	-0.019226	-0.010376	0.002747	-0.16708	-0.121	0.007172	0.00885	0.04303	-0.10635	-0.20264	0.057983	0.15564	-0.002899	0.14694	-0.25818	-0.39368	-0.00885	-0.018311	-0.00412	-0.31204	-0.1648	0.005035	-0.006256
36.916	0.003967	-0.000763	0.16724	0.000458	-0.03952	0.024109	-0.10193	-0.007935	0.041962	-0.027008	-0.039215	0.003357	-0.13428	-0.11551	-0.006866	0.003052	0.058441	-0.1387	-0.50736	0.20584	0.059509	-0.028992	0.13916	-0.13657	-0.32394	-0.002136	0.005798	-0.009918	-0.2858	0.001678	0.001831	-0.025787
36.917	0.007629	-0.033875	0.10254	0.000153	0.014496	0.16266	-0.103	0.008698	0.036469	-0.050812	-0.027161	-0.001831	0.010986	0.014343	-0.0177	-0.003815	0.032501	-0.088654	-0.20157	0.099182	0.070953	0.002441	-0.34027	0.012207	0.019684	-0.020905	0.034637	-0.010986	0.082092	0.084076	-0.004272	-0.012817
